<?xml version="1.0" encoding="utf-8"?>
<!-- Generator: Adobe Illustrator 25.4.1, SVG Export Plug-In . SVG Version: 6.00 Build 0)  -->
<svg version="1.1" id="Layer_1" xmlns="http://www.w3.org/2000/svg" xmlns:xlink="http://www.w3.org/1999/xlink" x="0px" y="0px"
	 viewBox="0 0 286.5 296.1" style="enable-background:new 0 0 286.5 296.1;" xml:space="preserve">
<polygon class="myfill" points="107.8,174.1 161.8,174.1 286.5,296 229.4,296.1 "/>
<style>
    .myfill { fill:white }
</style>
<g class="myfill">
	<path d="M143.3,43c57.9,0,105,47.1,105,105s-47.1,105-105,105s-105-47.1-105-105S85.3,43,143.3,43 M143.3,5c-79,0-143,64-143,143
		s64,143,143,143s143-64,143-143S222.2,5,143.3,5L143.3,5z"/>
</g>
<g class="myfill">
	<path d="M196.9,84H89.7C77,96.4,68.5,113.1,66.8,131.8h153C218,113.1,209.5,96.4,196.9,84z"/>
</g>
</svg>
